<svg aria-hidden="true" style="position:absolute;width:0;height:0;overflow:hidden" xmlns="http://www.w3.org/2000/svg">
   <defs>
      <symbol id="phone" viewBox="0 0 32 32">
         <path fill="#71c598" style="fill:var(--color1, #71c598)"
            d="M6.737 29.515c3.333 0 2.407-.043 5.407-.046 2.501-.003 4.135-.241 5.928-.139 1.485.085 2.947.292 4.431.194 2.029-.133 4.884.756 6.326-1.109.911-1.179.554-3.146.513-4.595-.063-2.214.315-5.644.158-7.085-.407-3.737-.291-4.803-.139-8.559.055-1.371.235-3.259-.623-4.328-.827-1.03-2.151-1.373-4.399-1.345-2.965.038-5.247.089-8.211.074-1.133-.006-2.369-.065-3.502-.071-.914-.005-2.969-.143-3.883-.129-.85.013-2.802.066-3.672.137-.871.071-1.832.739-2.214 1.525-.163.335-.21.711-.296 1.074-.161.68-.085 6.719-.05 7.074.333 3.333.226 1.661.226 4.995 0 .925-.215 2.475-.223 4.241-.011 2.342-.001 3.368.223 4.759.323 2.002 1.394 3.462 4 3.333z" />
         <path fill="#010101" style="fill:var(--color2, #010101)"
            d="M25.642 29.955c-.47 0-.943-.029-1.4-.058-.615-.039-1.197-.074-1.717-.04-1.08.07-2.157-.016-3.199-.101a48.536 48.536 0 0 0-1.273-.093c-.977-.056-1.902-.01-2.973.046-.849.043-1.812.093-2.935.093-1.436.001-1.97.013-2.504.023-.581.012-1.163.023-2.895.023-2.475.118-3.931-1.097-4.337-3.614-.233-1.447-.238-2.521-.227-4.813a37.97 37.97 0 0 1 .139-2.769c.045-.584.084-1.088.084-1.471 0-.852.007-1.378.012-1.744.011-.817.011-.817-.107-1.953l-.129-1.265c-.031-.307-.122-6.431.057-7.185.021-.088.039-.177.058-.266.06-.289.123-.589.263-.876.436-.895 1.505-1.629 2.486-1.709.896-.073 2.912-.125 3.694-.138.509-.008 1.366.031 2.19.069.658.029 1.292.059 1.699.061a76.62 76.62 0 0 1 1.759.036c.589.016 1.179.033 1.743.035 2.261.011 4.086-.015 6.199-.046l2.007-.028c2.447-.043 3.801.395 4.663 1.469.86 1.071.779 2.789.713 4.169l-.066 1.535c-.123 2.869-.174 4.056.186 7.355.087.795.017 2.144-.056 3.571-.063 1.239-.129 2.521-.1 3.541.007.269.027.556.045.853.089 1.359.189 2.899-.628 3.956-.857 1.106-2.143 1.333-3.451 1.333zm-2.662-.778c.416 0 .851.027 1.303.055 1.638.103 3.333.207 4.281-1.019.663-.857.571-2.264.49-3.505-.02-.305-.039-.6-.047-.877-.029-1.047.037-2.342.101-3.595.072-1.4.14-2.722.059-3.463-.365-3.349-.314-4.552-.189-7.457l.066-1.538c.06-1.267.135-2.846-.568-3.721-.717-.894-1.906-1.253-4.135-1.219l-2.005.028c-2.117.031-3.945.057-6.212.046a76.62 76.62 0 0 1-1.759-.036c-.589-.016-1.179-.033-1.743-.035a49.533 49.533 0 0 1-1.726-.062c-.813-.037-1.651-.073-2.149-.067-.775.013-2.771.064-3.651.135-.751.063-1.603.65-1.939 1.338-.103.213-.155.46-.209.721-.02.095-.04.19-.062.285-.141.591-.093 6.463-.043 6.964l.129 1.263c.121 1.164.122 1.183.111 2.03-.005.365-.012.887-.012 1.736 0 .408-.04.925-.086 1.522-.062.807-.133 1.721-.137 2.72-.011 2.408.004 3.37.219 4.705.347 2.157 1.528 3.149 3.655 3.053l.016-.001c1.73 0 2.31-.012 2.889-.023a113.33 113.33 0 0 1 2.517-.023 54.358 54.358 0 0 0 2.902-.093c1.091-.056 2.032-.104 3.045-.045.431.025.861.059 1.289.094 1.065.087 2.069.167 3.101.1.163-.011.33-.015.499-.015z" />
         <path fill="#d6e5e5" style="fill:var(--color3, #d6e5e5)"
            d="m13.777 17.093 2.361 2.081c.405.357 1.517 1.398 2.054 1.439.771.059 2.044-1.227 2.808-1.343.547-.083 1.507.416 2 .667.62.315.9.616 1.45 1.078.731.615.831 1.229.743 1.893-.055.415-.352.753-.655 1.043-.411.393-.979.928-1.528 1.074-.847.225-1.697.083-2.513-.237-1.24-.487-2.661-1.081-3.775-1.809-1.729-1.13-4.43-3.43-5.721-5.042-2.187-2.73-2.859-4.027-4-7.333-.221-.639-.273-2.049 0-2.667.257-.582.795-1.343 1.383-1.587.286-.119.587-.223.896-.218.651.01 1.188.485 1.661.931.879.83 1.818 1.784 1.885 2.991.051.919-.424 1.778-.908 2.561-.153.247-.312.503-.351.791-.045.33.075.658.205.964.463 1.083 1.219 1.849 2.005 2.723z" />
         <path fill="#010101" style="fill:var(--color2, #010101)"
            d="M22.154 25.469c-.561 0-1.149-.123-1.779-.371-1.329-.522-2.713-1.107-3.835-1.84-1.726-1.127-4.468-3.451-5.799-5.113-2.153-2.687-2.873-4.007-4.055-7.433-.252-.731-.297-2.217.011-2.91.3-.678.898-1.485 1.559-1.76.296-.123.651-.239 1.029-.243.753.013 1.345.512 1.885 1.023.967.913 1.917 1.915 1.988 3.215.057 1.02-.464 1.957-.957 2.755-.143.231-.275.445-.304.66-.031.231.05.482.181.789.393.918 1.029 1.619 1.704 2.361l.229.253 2.484 2.191c.333.298 1.349 1.206 1.722 1.235.322.021.885-.349 1.347-.649.499-.323.969-.628 1.385-.691.585-.085 1.421.302 2.156.677.573.292.873.551 1.252.88l.306.263c.917.771.941 1.577.859 2.193-.069.523-.42.92-.755 1.239-.411.393-1.033.986-1.673 1.155a3.602 3.602 0 0 1-.94.122zM9.258 6.466c-.25 0-.507.093-.747.193-.467.194-.96.858-1.206 1.413-.23.52-.188 1.848.011 2.423 1.164 3.374 1.828 4.591 3.945 7.234 1.291 1.612 3.961 3.872 5.643 4.971 1.072.701 2.419 1.269 3.715 1.779.855.337 1.609.409 2.306.225.475-.125 1.021-.647 1.383-.992.251-.239.513-.527.555-.845.076-.577-.001-1.069-.627-1.595l-.314-.269c-.358-.311-.617-.535-1.073-.767-.443-.225-1.37-.697-1.799-.634-.274.041-.705.321-1.123.592-.603.391-1.232.809-1.761.754-.552-.042-1.381-.746-2.115-1.403l-2.522-2.227-.241-.265c-.713-.785-1.387-1.527-1.823-2.548-.151-.353-.283-.736-.229-1.139.048-.357.232-.654.394-.917.463-.749.907-1.545.861-2.373-.059-1.056-.875-1.911-1.781-2.767-.464-.438-.923-.832-1.438-.841l-.013-.001z" />
      </symbol>
      <symbol id="github" viewBox="0 0 32 32">
         <path fill="#283d5b" style="fill:var(--color4, #283d5b)"
            d="M21.65 14.463c-.2-.45-.406-.906-.406-1.412 0-.425.194-.775.238-1.181.019-.162.012-.269-.163-.313a.936.936 0 0 0-.506.025c-.331.106-.712.319-.938.606-.012.219-.256.425-.481.25-.794-.613-1.975-.631-2.931-.594-.9.037-1.863.144-2.719.438a.32.32 0 0 1-.15.019.338.338 0 0 1-.225-.094 8.25 8.25 0 0 0-.744-.656c-.275-.206-.631-.488-.988-.506-.7-.037-.256 1.238-.094 1.806.131.088.2.262.094.431-.3.45-.844.8-1.031 1.325-.181.512-.162 1.044-.037 1.569.106.475.294.9.594 1.288.231.3.619.788 1.056.706a.302.302 0 0 1 .238.05c.8.119 1.456.75 1.644 1.538.213.913-.306 1.706-1.175 2.006-.912.319-1.756.025-2.188-.837-.144-.281-.225-.613-.406-.875a.557.557 0 0 0-.444-.25c.137.675.063 1.431.588 1.944.594.575 1.406.438 2.156.5.563.05.975.356.863.969-.069.387-.225.769-.356 1.144-.131.381-.156.706-.162 1.094.094.012.194.031.287.044 1.838.231 3.7-.069 5.4-.781a.305.305 0 0 1 .044-.313c.113-.15.106-.406.1-.581a4.374 4.374 0 0 0-.131-.9c-.119-.488-.256-1.025-.538-1.444-.331-.5-.806-.975-.887-1.594-.069-.525.212-1.344.819-1.4a.317.317 0 0 1 .194.044c.587-.075 1.188-.175 1.744-.381a3.57 3.57 0 0 0 1.356-.881c.337-.35.619-.788.65-1.281.031-.55-.144-1.037-.363-1.519z" />
         <path fill="#d6e5e5" style="fill:var(--color3, #d6e5e5)"
            d="M25.369 13.919c-.688-3.063-3.188-5.525-6.15-6.444-1.4-.431-2.894-.581-4.338-.319-1.281.231-2.444.806-3.525 1.519-1.156.769-2.256 1.688-3.081 2.819-.581.8-1.044 1.769-1.013 2.763 0 .006-.006.019-.006.025-.019.35-.056.694-.088 1.044a.463.463 0 0 1-.088.025c-.037.412-.1.831-.112 1.25-.013.438-.013.875.013 1.319.044.863.156 1.725.388 2.556.35 1.238.938 2.431 1.894 3.313.869.8 1.944 1.288 3.075 1.544v-.088c.006-.306.031-.594.137-.906.125-.387.3-.781.375-1.181.037-.212.037-.244-.175-.275-.319-.044-.65-.019-.975-.038-.381-.025-.775-.081-1.119-.25-.35-.175-.581-.413-.819-.719-.5-.65-.313-1.5-.6-2.225-.056-.144.031-.363.194-.4.631-.144 1.225-.025 1.544.587.244.456.375 1.175.912 1.387.688.269 1.738-.275 1.688-1.075a1.422 1.422 0 0 0-1.287-1.331.167.167 0 0 1-.081-.019c-.525.012-.988-.356-1.319-.75A3.904 3.904 0 0 1 10 16.544c-.175-.662-.231-1.331-.044-1.994.169-.594.644-.963 1.006-1.419-.088-.569-.363-1.106-.344-1.694.012-.45.331-.969.819-1.012.863-.075 1.65.637 2.25 1.225.931-.287 1.931-.406 2.9-.431.931-.025 2.019.025 2.856.5.3-.344.756-.594 1.175-.731.438-.144 1.044-.131 1.344.269.288.375.106.894-.019 1.294-.181.588.025 1.106.269 1.637.256.569.481 1.194.419 1.831-.063.581-.313 1.087-.694 1.525-.431.494-.944.887-1.563 1.119-.7.262-1.425.406-2.163.494a.402.402 0 0 1-.15-.012c-.063.075-.15.244-.169.306a.737.737 0 0 0-.025.387c.056.288.244.55.413.781.3.413.563.806.738 1.294.188.525.337 1.087.387 1.644.025.275.031.563-.038.831a11.452 11.452 0 0 0 2.688-1.863c2.331-2.169 4.044-5.35 3.313-8.606z" />
         <path fill="#d6e5e5" style="fill:var(--color3, #d6e5e5)"
            d="M29.825 10.756c-1.331-2.713-3.85-4.844-6.512-6.188-2.669-1.356-5.762-2.069-8.756-1.594-4.931.775-9.706 4.394-11.119 9.244a.32.32 0 0 1-.044.162c-.025.088-.05.181-.069.269-.031.063-.063.125-.087.194-.006.056-.019.119-.025.169-.056.256-.125.512-.169.769-.087.481-.069.981-.237 1.438a9.025 9.025 0 0 1-.05.394v.044c-.031.275-.056.55-.081.825-.05.575-.075 1.15-.069 1.725.019 1.131.15 2.262.431 3.356.544 2.081 1.594 4.05 3.25 5.456 1.138.969 2.469 1.606 3.9 2.019a17.51 17.51 0 0 0 4.819.719c3.219.006 6.45-.869 9.1-2.731 4.9-3.45 8.594-10.425 5.719-16.269zM15.519 26.144c-2.887.262-6.056-.575-7.7-3.131-.713-1.106-1.125-2.381-1.319-3.675-.1-.675-.156-1.356-.156-2.038 0-.356.006-.712.025-1.069.025-.394.1-.781.112-1.169.006-.15.1-.256.219-.3-.219-1.325.319-2.619 1.112-3.688.938-1.269 2.2-2.313 3.537-3.138 1.106-.681 2.281-1.219 3.575-1.425a9.63 9.63 0 0 1 4.338.319c2.913.906 5.506 3.1 6.475 6.056 2.1 6.4-4.1 12.7-10.219 13.256z" />
         <path style="fill:var(--color5, #000)"
            d="M14.25 2.394c-.537.094-1.069.219-1.594.369h7.762c-2.006-.556-4.119-.725-6.169-.369z" />
         <path style="fill:var(--color5, #000)"
            d="M29.806 9.45c-1.575-2.525-4.119-4.475-6.794-5.725a17.198 17.198 0 0 0-2.6-.962h-7.756C8.15 4.082 4.1 7.588 2.818 12.119c-.206.344-.237.819-.325 1.2a8.987 8.987 0 0 0-.144.819c-.006.025-.006.056-.013.081-.006.019-.013.031-.013.05-.05.262-.094.525-.131.787 0 .006-.006.006-.006.012a.333.333 0 0 0-.025.2 31.067 31.067 0 0 0-.144 1.519c-.05.712-.056 1.431-.019 2.144a14.33 14.33 0 0 0 .831 4.094c.956 2.613 2.844 4.781 5.381 5.956 1.444.663 3.05 1.044 4.619 1.25 1.594.206 3.219.194 4.813-.038 3.181-.462 6.156-1.856 8.506-4.05 2.275-2.119 4.063-4.85 4.881-7.863.825-2.994.431-6.181-1.225-8.831zM24.1 27.031c-2.65 1.863-5.881 2.738-9.1 2.731a17.427 17.427 0 0 1-4.813-.719c-1.431-.419-2.763-1.05-3.9-2.019-1.656-1.406-2.706-3.375-3.25-5.456-.288-1.094-.413-2.225-.431-3.356-.013-.575.013-1.15.069-1.725.025-.275.05-.55.081-.825v-.044c.019-.131.038-.262.05-.394.169-.456.15-.963.237-1.438.05-.256.112-.512.169-.769a1.1 1.1 0 0 0 .025-.169c.025-.063.056-.131.087-.194.025-.088.044-.181.069-.269a.282.282 0 0 0 .044-.162c1.413-4.856 6.188-8.475 11.119-9.25 2.994-.475 6.081.237 8.756 1.594 2.663 1.344 5.175 3.481 6.512 6.188 2.875 5.844-.819 12.819-5.725 16.275z" />
         <path fill="#010101" style="fill:var(--color2, #010101)"
            d="M25.731 12.894c-.975-2.956-3.563-5.15-6.475-6.056a9.624 9.624 0 0 0-4.338-.319c-1.294.206-2.469.737-3.575 1.425-1.338.825-2.594 1.875-3.537 3.138-.794 1.069-1.331 2.363-1.112 3.688a.33.33 0 0 0-.219.3c-.013.387-.094.781-.112 1.169-.019.356-.025.712-.025 1.069.006.681.056 1.363.156 2.038.194 1.294.606 2.569 1.319 3.675 1.644 2.55 4.813 3.387 7.7 3.131 6.125-.563 12.325-6.863 10.219-13.256zm-7.031 11.5a.31.31 0 0 0-.044.313c-1.7.712-3.563 1.012-5.4.781a3.976 3.976 0 0 1-.287-.044c.006-.387.031-.712.162-1.094.125-.375.281-.756.356-1.144.113-.613-.306-.919-.863-.969-.756-.063-1.563.069-2.156-.5-.531-.506-.45-1.269-.588-1.944a.527.527 0 0 1 .444.25c.181.262.269.587.406.875.431.869 1.275 1.156 2.188.837.863-.3 1.387-1.094 1.175-2.006-.188-.788-.844-1.419-1.644-1.538a.295.295 0 0 0-.238-.05c-.438.081-.819-.406-1.056-.706a3.284 3.284 0 0 1-.594-1.288c-.119-.525-.144-1.056.037-1.569.188-.525.731-.869 1.031-1.325.113-.169.037-.344-.094-.431-.162-.575-.606-1.844.094-1.806.363.019.719.3.988.506.262.2.512.425.744.656a.302.302 0 0 0 .225.094c.05.006.1 0 .15-.019.856-.294 1.819-.406 2.719-.438.956-.037 2.137-.019 2.931.594.225.175.469-.031.481-.25.225-.287.6-.5.938-.606a.929.929 0 0 1 .506-.025c.181.037.181.15.163.313-.044.406-.238.756-.238 1.181 0 .5.2.963.406 1.412.219.481.394.975.356 1.506-.031.5-.313.931-.65 1.281a3.49 3.49 0 0 1-1.356.881c-.556.206-1.156.313-1.744.381a.313.313 0 0 0-.194-.044c-.606.056-.887.875-.819 1.4.081.619.556 1.094.887 1.594.281.419.419.956.538 1.444.069.294.113.594.131.9.019.188.025.444-.094.594zm3.363-1.875c-.8.744-1.712 1.375-2.688 1.863.069-.269.063-.556.038-.831-.05-.556-.2-1.119-.387-1.644-.175-.488-.438-.875-.738-1.294-.169-.238-.356-.494-.413-.781a.737.737 0 0 1 .025-.387c.019-.063.106-.231.169-.306.044.012.094.025.15.012.738-.087 1.462-.231 2.163-.494.619-.231 1.125-.625 1.563-1.119.381-.438.637-.944.694-1.525.063-.637-.163-1.262-.419-1.831-.238-.537-.45-1.05-.269-1.637.125-.4.306-.919.019-1.294-.3-.4-.906-.412-1.344-.269-.419.137-.875.387-1.175.731-.837-.481-1.925-.525-2.856-.5-.969.025-1.969.137-2.9.431-.6-.588-1.387-1.3-2.25-1.225-.488.044-.806.569-.819 1.012-.019.581.256 1.125.344 1.694-.363.456-.838.831-1.006 1.419-.188.662-.131 1.331.044 1.994.15.563.438 1.063.813 1.506.331.394.794.762 1.319.75a5.8 5.8 0 0 0 .081.019c.7.069 1.244.619 1.287 1.331.05.794-1.006 1.337-1.688 1.075-.537-.212-.675-.925-.912-1.387-.319-.613-.912-.731-1.544-.587-.162.038-.25.25-.194.4.287.725.094 1.575.6 2.225.238.306.469.544.819.719.344.169.738.225 1.119.25.325.019.65-.006.975.038.213.031.213.063.175.275-.075.4-.25.794-.375 1.181-.1.313-.131.6-.137.906v.088c-1.137-.256-2.206-.744-3.075-1.544-.956-.881-1.55-2.075-1.894-3.313-.231-.831-.344-1.694-.388-2.556a15.658 15.658 0 0 1-.013-1.319c.013-.419.075-.831.112-1.25.031-.006.063-.012.088-.025.031-.35.069-.694.088-1.044 0-.006 0-.019.006-.025-.031-.994.431-1.956 1.012-2.762.819-1.131 1.919-2.05 3.081-2.819 1.075-.713 2.244-1.287 3.525-1.519 1.45-.263 2.938-.112 4.338.319 2.962.919 5.462 3.381 6.15 6.444.725 3.262-.988 6.444-3.313 8.606z" />
      </symbol>
      <symbol id="gmail" viewBox="0 0 32 32">
         <path fill="#d6e5e5" style="fill:var(--color3, #d6e5e5)"
            d="M17.465 4.737c-5.077.305-8.457-.001-13.283-.001-1.129 0-2.539.627-2.602 2.696-.17 5.611-.143 10.756-.27 16.369-.029 1.251.023 2.687.992 3.479.639.522 1.515.615 2.338.673 3.327.239 6.665.055 10 .127 5.521.119 8.374-.699 12.538-.277 1.071.108 2.382.172 2.968-.73.331-.508.247-1.161.265-1.766.133-4.559-.027-6.817.168-10.831.109-2.233.223-4.361.178-7.028-.029-1.749-1.167-2.509-1.841-2.825-.547-.257-1.764-.258-2.368-.271-3.401-.076-5.621.06-9.005.413z" />
         <path fill="#bcbcbc" style="fill:var(--color6, #bcbcbc)"
            d="M27.178 27.803c1.071.108 2.382.172 2.968-.73.331-.508.247-1.161.265-1.766.133-4.559-.027-6.817.168-10.831.109-2.233.223-4.361.178-7.028-.029-1.75-1.167-2.509-1.841-2.825-.547-.257-1.764-.258-2.368-.271-3.401-.076-5.621.06-9.005.413l-.077-.026c-5.077.304-8.457-.002-13.283-.002-1.129 0-2.539.627-2.602 2.696l-.007.273 3.52 4.539c1.051 1.445 2.721 3.415 3.876 4.629 2.973 3.124 6.375 6.748 9.713 10.597.142.163.283.329.425.495l.003.021c2.939-.174 5.191-.475 8.069-.184z" />
         <path fill="#d03827" style="fill:var(--color7, #d03827)"
            d="M1.567 7.933c-.153 5.374-.133 10.426-.257 15.867-.029 1.251.023 2.687.992 3.479.639.522 1.515.615 2.338.673.064.005.128.004.193.009l.016-.373c-.007-1.91-.013-4.51-.019-6.42l-.009-2.575c-.005-1.571-.011-3.143.124-4.708.105-1.221.179-2.059.14-3.283L1.567 7.933zM26.692 17.962c-.291 2.965-.448 6.682-.113 9.642l.23.167c.123.011.243.019.369.031 1.071.108 2.382.172 2.968-.73.331-.508.247-1.161.265-1.766.133-4.559-.027-6.817.168-10.831.108-2.221.221-4.339.178-6.987l-3.701 3.535c-.109 2.252-.171 4.983-.363 6.939z" />
         <path fill="#d03827" style="fill:var(--color7, #d03827)"
            d="M30.707 7.594c-2.225 2.103-3.825 3.429-6.477 5.257-1.085.748-2.417 1.793-3.709 2.71-1.175.833-2.309 1.728-3.573 2.417-.389.212-.827.419-1.259.319-.217-.051-.409-.175-.593-.299-4.602-3.111-8.722-6.75-13.354-9.803L1.65 6.966l.277-1.086 1.044-.895 1.107-.197a128.602 128.602 0 0 0 11.193 8.632c.169.116.347.235.55.261.247.032.488-.078.711-.187a37.765 37.765 0 0 0 11.582-8.785l1.039-.082 1.297 1.261.257 1.707z" />
         <path fill="#010101" style="fill:var(--color2, #010101)"
            d="M15.746 28.425c-.36 0-.73-.003-1.113-.012-1.253-.027-2.529-.017-3.765-.009-2.048.014-4.167.031-6.251-.119-.893-.065-1.824-.175-2.525-.747-1.035-.847-1.148-2.3-1.115-3.745.055-2.454.082-4.818.108-7.171.033-2.97.067-6.041.163-9.201.068-2.228 1.624-3.019 2.935-3.019 1.662 0 3.155.037 4.597.071 2.75.068 5.347.13 8.665-.069a.299.299 0 0 1 .133.019c3.195-.331 5.474-.486 8.977-.406l.161.003c.898.017 1.819.055 2.341.299 1.287.603 2.009 1.711 2.033 3.121.042 2.529-.056 4.543-.16 6.675l-.019.376c-.106 2.193-.106 3.884-.107 5.673 0 1.518 0 3.088-.06 5.152-.003.115-.003.232-.003.349.002.514.004 1.097-.317 1.589-.738 1.135-2.393.969-3.281.879-2.225-.224-4.059-.092-6.181.061-1.507.109-3.185.231-5.219.231zm-2.978-.696c.626 0 1.255.005 1.879.018 2.517.057 4.511-.089 6.268-.216 2.154-.155 4.015-.29 6.295-.059 1.034.102 2.179.154 2.655-.58.211-.325.21-.762.208-1.224a9.148 9.148 0 0 1 .003-.371c.06-2.053.06-3.619.06-5.132.001-1.797.001-3.495.108-5.706l.018-.376c.103-2.121.202-4.124.159-6.63-.025-1.463-.911-2.182-1.649-2.528-.437-.206-1.5-.226-2.071-.237l-.161-.004c-3.491-.081-5.758.077-8.963.41a.32.32 0 0 1-.154-.02c-3.317.197-5.913.133-8.659.067a182.336 182.336 0 0 0-4.581-.071c-.515 0-2.202.171-2.269 2.373-.096 3.153-.129 6.221-.163 9.187-.026 2.355-.052 4.722-.108 7.179-.027 1.188.016 2.515.871 3.213.551.45 1.331.541 2.151.599 2.058.148 4.162.133 6.198.118.626-.005 1.264-.01 1.905-.01z" />
         <path fill="#010101" style="fill:var(--color2, #010101)"
            d="M15.909 14.019c-.043 0-.086-.003-.129-.008-.287-.037-.514-.192-.696-.317a125.62 125.62 0 0 1-11.05-8.541.334.334 0 0 1 .438-.504 125.187 125.187 0 0 0 10.99 8.496c.129.089.276.189.404.205.149.02.325-.059.523-.156a37.651 37.651 0 0 0 11.479-8.708.334.334 0 0 1 .498.444 38.344 38.344 0 0 1-11.684 8.863c-.189.093-.464.227-.771.227z" />
         <path fill="#010101" style="fill:var(--color2, #010101)"
            d="M15.92 18.656c-.101 0-.203-.011-.305-.035-.267-.062-.485-.2-.705-.348-2.211-1.494-4.341-3.133-6.401-4.719-2.234-1.719-4.544-3.497-6.949-5.082a.333.333 0 0 1 .367-.556c2.425 1.599 4.745 3.384 6.989 5.111 2.052 1.579 4.174 3.211 6.368 4.695.171.116.326.215.481.251.323.075.697-.109 1.024-.287.953-.519 1.853-1.175 2.723-1.808.271-.197.543-.395.817-.589a89.862 89.862 0 0 0 1.795-1.317c.681-.507 1.334-.994 1.917-1.397 2.541-1.751 4.105-3.02 6.437-5.223a.333.333 0 0 1 .458.484c-2.331 2.203-3.976 3.537-6.517 5.289-.577.397-1.223.879-1.897 1.381-.593.441-1.205.898-1.809 1.326-.271.192-.541.388-.81.584-.888.647-1.807 1.315-2.797 1.854-.375.205-.774.386-1.187.386z" />
         <path fill="#010101" style="fill:var(--color2, #010101)"
            d="M4.849 27.922a.333.333 0 0 1-.333-.332l-.028-8.995c-.005-1.56-.011-3.162.125-4.737.109-1.267.177-2.061.139-3.245a.334.334 0 0 1 .322-.344c.168-.016.338.139.344.323.039 1.223-.034 2.076-.135 3.257-.139 1.612-.134 3.199-.129 4.733l.028 9.005a.334.334 0 0 1-.333.335v-.001zM26.579 27.937a.334.334 0 0 1-.331-.295c-.392-3.462-.097-7.571.112-9.713.136-1.38.207-3.157.275-4.875.028-.703.055-1.395.087-2.047.009-.183.143-.339.349-.317a.335.335 0 0 1 .317.349 273.53 273.53 0 0 0-.087 2.041c-.069 1.727-.14 3.514-.277 4.913-.208 2.115-.499 6.171-.113 9.572a.334.334 0 0 1-.293.369l-.039.002z" />
         <path fill="#010101" style="fill:var(--color2, #010101)"
            d="M19.107 28.299a.333.333 0 0 1-.265-.131c-2.839-3.709-5.303-6.187-7.685-8.583a162.09 162.09 0 0 1-2.431-2.481c-1.081-1.137-2.769-3.103-3.904-4.663a.333.333 0 1 1 .538-.392c.97 1.333 2.625 3.309 3.848 4.595.797.838 1.601 1.646 2.42 2.471 2.397 2.411 4.875 4.905 7.742 8.649a.333.333 0 0 1-.265.535z" />
         <path fill="#010101" style="fill:var(--color2, #010101)"
            d="m5.697 28.207-.249-.223-.214-.257c1.627-1.574 3.311-3.202 5.066-4.699a53.95 53.95 0 0 0 1.917-1.751c1.259-1.186 2.561-2.413 3.914-3.291a.334.334 0 0 1 .363.558c-1.302.845-2.582 2.051-3.819 3.217a54.772 54.772 0 0 1-1.942 1.773c-1.739 1.485-3.415 3.106-5.035 4.674zm-.248-.224z" />
      </symbol>
      <symbol id="linkedin" viewBox="0 0 32 32">
         <path fill="#4b7bb2" style="fill:var(--color8, #4b7bb2)"
            d="M7.822 2.375c2.137-.102 5.395-.473 8.835-.275 1.947.113 7.068-.229 7.068-.229 3.267 0 5.839 2.599 6.247 5.84.139 1.107.53 3.442.401 4.477-.275 2.209.151 5.535.057 6.445-.427 4.141-.22 4.315-.057 5.741.37 3.247-2.653 6.077-5.916 5.916-2.842-.141-6.416-.236-9.27.017-2.149.191-5.834-.105-7.088-.017-3.259.228-5.894-1.758-5.916-5.916-.006-1.114-.404-2.467-.364-4.44.049-2.397.342-4.523.364-5.601.033-1.579.005-4.738 0-6.317-.011-3.267 1.196-5.429 5.639-5.641z" />
         <path fill="#010101" style="fill:var(--color2, #010101)"
            d="M13.324 30.707c-.891 0-1.841-.029-2.724-.057-1.061-.033-1.977-.062-2.477-.027-1.745.124-3.318-.377-4.428-1.407-1.195-1.109-1.833-2.783-1.845-4.84-.002-.432-.068-.91-.143-1.463-.115-.839-.245-1.791-.221-2.986.029-1.448.147-2.792.241-3.873.061-.701.114-1.307.123-1.728.026-1.249.014-3.508.005-5.157L1.85 8.017c-.013-3.936 1.823-5.779 5.957-5.976.526-.025 1.12-.067 1.769-.111 2.001-.14 4.493-.313 7.101-.163 1.903.109 6.975-.225 7.027-.229h.001c3.332 0 6.159 2.636 6.599 6.131.027.21.062.464.101.745.173 1.238.409 2.933.3 3.814-.167 1.348-.065 3.182.01 4.521.048.865.086 1.548.049 1.917-.357 3.459-.269 4.099-.135 5.069.025.183.052.377.077.601.175 1.539-.374 3.113-1.507 4.322-1.235 1.317-3.014 2.049-4.757 1.965-3.903-.194-6.921-.188-9.223.017-.559.05-1.209.067-1.894.067zM8.73 29.94c.515 0 1.17.021 1.891.043 1.543.048 3.293.103 4.537-.007 2.334-.208 5.381-.214 9.316-.019 1.553.082 3.134-.579 4.237-1.755 1.014-1.081 1.487-2.427 1.332-3.791-.025-.219-.051-.407-.075-.585-.14-1.017-.233-1.689.132-5.227.033-.316-.006-1.009-.051-1.811-.081-1.441-.181-3.233-.005-4.641.099-.794-.14-2.506-.299-3.639-.04-.285-.076-.542-.103-.755-.399-3.163-2.942-5.549-5.917-5.549-.188.013-5.142.342-7.087.228-2.57-.149-5.035.024-7.017.163-.653.045-1.253.087-1.783.113-3.792.181-5.333 1.719-5.321 5.307l.005 1.151c.009 1.653.021 3.917-.005 5.175-.009.443-.063 1.059-.125 1.773-.093 1.07-.21 2.403-.239 3.828-.023 1.143.103 2.067.215 2.882.079.576.147 1.074.149 1.549.01 1.868.574 3.374 1.631 4.355.987.916 2.347 1.343 3.929 1.231.176-.013.397-.017.653-.017z" />
         <path fill="#d6e5e5" style="fill:var(--color3, #d6e5e5)"
            d="M10.9 9.168c-.157 1.815-1.292 1.889-2.07 1.85s-2.227-.574-2.128-2.005C6.8 7.582 8.921 6.986 8.921 6.986s2.127.477 1.979 2.181z" />
         <path fill="#010101" style="fill:var(--color2, #010101)"
            d="M10.539 7.417a2.76 2.76 0 0 0-1.474-.743c-.713-.123-1.079.183-1.601.624-.973.821-1.475 2.089-.657 3.231.819 1.143 3.042 1.195 3.949.171.465-.524.58-1.171.523-1.855-.069-.816-.432-1.284-1.023-1.808-.32-.283-.793.186-.471.471.437.387.707.635.811 1.255.095.557.013 1.133-.391 1.554-.427.446-1.143.394-1.727.364-.661-.033-1.135-.373-1.342-1.002-.281-.857.309-1.434.899-1.943.389-.336.753-.521 1.284-.332.209.074.572.315.749.483.311.296.783-.175.471-.471z" />
         <path fill="#d6e5e5" style="fill:var(--color3, #d6e5e5)" d="M6.942 13.664 7.51 26.68l3.746.065-.385-12.939z" />
         <path fill="#010101" style="fill:var(--color2, #010101)"
            d="M6.609 13.664c.48 4.297.521 8.561.521 12.874 0 .429.667.43.667 0 0-4.313-.041-8.577-.521-12.874-.047-.421-.714-.426-.667 0z" />
         <path fill="#010101" style="fill:var(--color2, #010101)"
            d="m11.192 13.895.029-.087c.075-.221-.119-.405-.321-.422-1.315-.113-2.637-.102-3.958-.102-.429 0-.43.667 0 .667 1.321 0 2.643-.011 3.958.102l-.321-.422-.029.087c-.137.408.506.583.643.177z" />
         <path fill="#010101" style="fill:var(--color2, #010101)"
            d="M10.687 14.081c-.254-.053-.099 2.517-.093 2.703.039 1.163.013 2.334.095 3.496a84.12 84.12 0 0 1 .226 6.211c-.002.429.665.429.667 0 .019-4.235-.364-8.486-.434-12.724-.002-.139-.101-.292-.245-.321l-.039-.008c-.419-.086-.598.557-.177.643z" />
         <path fill="#010101" style="fill:var(--color2, #010101)"
            d="M7.51 26.347h-.031v.667c.834 0 1.665-.009 2.495.043.413.025.975.157 1.37.011l-.377-.49-.054.077c-.247.351.33.685.575.337l.054-.077c.163-.231-.109-.589-.377-.489-.401.149-1.036-.059-1.456-.078-.741-.034-1.491.001-2.233.001-.429 0-.43.667 0 .667h.031c.431-.001.431-.667.001-.667z" />
         <path fill="#d6e5e5" style="fill:var(--color3, #d6e5e5)"
            d="m13.237 13.617.379 9.253-.04 3.995 3.282.206s-.023-2.616 0-2.853-.491-4.147-.127-4.499c.364-.353 1.686-2.033 1.879-1.961s1.988-.517 1.988-.517 1.161.421 1.203.456.865 1.203.865 1.203l.227 2.172.079 5.017.489.584 2.402.087.201-4.953-.263-2.752-.976-4.017-2.524-1.467-3.715.615-1.427 1.001-.437-1.61-3.485.041z" />
         <path fill="#010101" style="fill:var(--color2, #010101)"
            d="M12.916 13.705c.461 1.887.235 4.177.272 6.113.045 2.315-.124 4.75.055 7.047.018.233.275.44.501.288l.135-.091c.354-.238.021-.816-.337-.575l-.135.091.501.288c-.192-2.469-.045-5.102-.055-7.591-.007-1.826.138-3.969-.296-5.745-.101-.417-.744-.241-.642.177z" />
         <path fill="#010101" style="fill:var(--color2, #010101)"
            d="M13.096 13.097a.936.936 0 0 1-.029.037c-.105.134-.149.342 0 .471.285.248.73.169 1.084.192.826.054 1.657-.013 2.481.099l-.233-.41c-.125.668.017 1.253.435 1.785.265.337.733-.137.471-.471a1.404 1.404 0 0 1-.263-1.137c.03-.158-.043-.384-.233-.41a14.28 14.28 0 0 0-1.929-.113c-.297 0-.587-.031-.88-.044-.073-.003-.441.055-.463.036v.471a.936.936 0 0 1 .029-.037c.261-.334-.208-.809-.471-.471z" />
         <path fill="#010101" style="fill:var(--color2, #010101)"
            d="m17.069 15.226-.001.03c-.013.353.445.424.621.168.875-1.271 3.546-1.616 4.885-1.337 2.279.475 2.407 2.319 2.789 4.285.289 1.489.351 3.051.32 4.568-.025 1.206-.433 2.725-.142 3.907.085.343.535.289.643 0l.011-.031c.15-.403-.494-.576-.643-.177l-.011.031h.643c-.241-.978.141-2.176.164-3.185a42.388 42.388 0 0 0-.069-3.209c-.09-1.698-.297-4.175-1.301-5.595-.78-1.104-2.365-1.514-3.685-1.432-1.245.077-3.429.749-4.179 1.839l.621.168.001-.03c.015-.428-.651-.427-.667.001z" />
         <path fill="#010101" style="fill:var(--color2, #010101)"
            d="m13.589 26.629-.081.051c-.227.144-.214.547.079.609 1.037.218 2.322.191 3.37-.017.145-.029.241-.183.245-.321.049-2.045-.627-4.521-.178-6.517.277-1.231 1.249-1.983 2.325-2.507 2.004-.976 3.107.617 3.209 2.489.06 1.089.009 2.193.047 3.283.029.828-.151 1.845.057 2.646.337 1.3 1.918.879 2.897.681.42-.085.243-.727-.177-.643-.776.157-1.767.411-2.076-.427-.159-.431.003-1.315-.016-1.804-.057-1.459.061-2.968-.115-4.415-.23-1.899-1.733-3.307-3.689-2.629-.851.295-1.637.941-2.3 1.533-.951.849-.881 1.649-.881 2.931-.001 1.307.213 2.593.247 3.894.007.257.091.907-.008 1.171-.049.13.479.149-.423.09-.764-.049-1.607.078-2.356-.079l.079.609.081-.051c.362-.23.028-.807-.336-.577z" />
      </symbol>
   </defs>
</svg>